<svg width="57" height="57" viewBox="0 0 57 57" fill="none" xmlns="http://www.w3.org/2000/svg">
<circle cx="28.5002" cy="28.0184" r="28" transform="rotate(0.0376019 28.5002 28.0184)" fill="#E9EBFD"/>
<path d="M25.5049 21.0163L23.5049 21.015C22.9744 21.0146 22.4656 21.225 22.0903 21.5998C21.715 21.9747 21.5039 22.4832 21.5036 23.0137L21.4957 35.0137C21.4953 35.5441 21.7057 36.0529 22.0806 36.4283C22.4554 36.8036 22.9639 37.0146 23.4944 37.015L33.4944 37.0215C34.0248 37.0219 34.5337 36.8115 34.909 36.4367C35.2843 36.0619 35.4953 35.5533 35.4957 35.0229L35.5036 23.0229C35.5039 22.4924 35.2935 21.9836 34.9187 21.6083C34.5439 21.2329 34.0353 21.0219 33.5049 21.0215L31.5049 21.0202" stroke="#7C8493" stroke-width="2" stroke-linecap="round" stroke-linejoin="round"/>
<path d="M29.5061 19.0183L27.5061 19.0169C26.4015 19.0162 25.5055 19.9111 25.5048 21.0156C25.5041 22.1202 26.3989 23.0162 27.5035 23.0169L29.5035 23.0182C30.608 23.019 31.5041 22.1241 31.5048 21.0196C31.5055 19.915 30.6107 19.019 29.5061 19.0183Z" stroke="#7C8493" stroke-width="2" stroke-linecap="round" stroke-linejoin="round"/>
<path d="M25.5002 28.0156L25.5102 28.0156" stroke="#7C8493" stroke-width="2" stroke-linecap="round" stroke-linejoin="round"/>
<path d="M29.5002 28.0176L31.5002 28.0189" stroke="#7C8493" stroke-width="2" stroke-linecap="round" stroke-linejoin="round"/>
<path d="M25.4976 32.0156L25.5076 32.0156" stroke="#7C8493" stroke-width="2" stroke-linecap="round" stroke-linejoin="round"/>
<path d="M29.4976 32.0176L31.4976 32.0189" stroke="#7C8493" stroke-width="2" stroke-linecap="round" stroke-linejoin="round"/>
</svg>
