<svg width="57" height="57" viewBox="0 0 57 57" fill="none" xmlns="http://www.w3.org/2000/svg">
<circle cx="28.4633" cy="28.0184" r="28" transform="rotate(0.0376019 28.4633 28.0184)" fill="#4640DE"/>
<path d="M37.4626 29.2785C34.6023 30.4329 31.5459 31.0234 28.4614 31.0176C25.2784 31.0155 22.2418 30.3935 19.4626 29.2667M28.4634 28.0176L28.4734 28.0176M32.4673 22.0202L32.4687 20.0202C32.469 19.4898 32.2586 18.981 31.8838 18.6057C31.509 18.2303 31.0004 18.0193 30.47 18.0189L26.47 18.0163C25.9395 18.016 25.4307 18.2263 25.0554 18.6012C24.6801 18.976 24.469 19.4846 24.4687 20.015L24.4673 22.015L32.4673 22.0202ZM21.4582 36.013L35.4582 36.0222C35.9886 36.0226 36.4974 35.8122 36.8728 35.4374C37.2481 35.0625 37.4591 34.554 37.4595 34.0235L37.466 24.0235C37.4664 23.4931 37.256 22.9843 36.8812 22.6089C36.5063 22.2336 35.9978 22.0226 35.4673 22.0222L21.4673 22.013C20.9369 22.0127 20.4281 22.2231 20.0527 22.5979C19.6774 22.9727 19.4664 23.4813 19.466 24.0117L19.4595 34.0117C19.4591 34.5421 19.6695 35.051 20.0443 35.4263C20.4192 35.8016 20.9277 36.0127 21.4582 36.013Z" stroke="white" stroke-width="2" stroke-linecap="round" stroke-linejoin="round"/>
</svg>
