<svg width="1198" height="179" viewBox="0 0 1198 179" fill="none" xmlns="http://www.w3.org/2000/svg">
<path d="M178.111 94.2611C180.951 45.1211 143.411 2.99108 94.2711 0.151083C45.1311 -2.68892 2.99108 34.8511 0.151082 83.9911C-2.68892 133.141 34.8511 175.271 84.0011 178.101C87.9311 178.331 91.8211 178.271 95.6611 178.001L173.781 177.271L149.881 154.301C166.081 139.201 176.741 118.121 178.111 94.2611ZM85.5211 128.821C78.8411 142.401 57.6511 132.131 64.3911 118.441C71.0911 104.771 92.1711 115.271 85.5211 128.821ZM105.341 97.9711C81.6411 102.511 103.121 118.011 74.1311 103.771C78.0211 92.0611 78.4511 88.2711 82.8011 85.6211C90.6911 80.8111 99.4011 83.2011 107.541 77.7211C116.721 71.5511 114.621 58.5511 99.6811 56.2011C83.8311 53.7111 85.8911 61.4211 83.2311 39.3011C132.941 27.0911 159.601 87.5811 105.341 97.9711Z" fill="#2B1DAA"/>
<path d="M272.781 178.241C255.651 178.241 241.371 173.781 229.951 164.871C218.531 155.961 212.821 144.881 212.821 131.651H241.031C241.031 136.531 244.161 140.601 250.431 143.871C256.701 147.141 264.501 148.781 273.831 148.781C282.191 148.781 289.191 147.421 294.831 144.711C300.471 141.991 303.291 138.551 303.291 134.371C303.291 131.731 302.211 129.431 300.051 127.471C297.891 125.521 294.691 123.851 290.441 122.461C286.191 121.071 282.191 119.991 278.431 119.221C274.671 118.461 270.071 117.651 264.641 116.821C250.291 114.591 238.491 109.861 229.221 102.611C219.951 95.3706 215.321 85.6806 215.321 73.5706C215.321 60.3406 220.681 49.6105 231.411 41.3905C242.141 33.1705 255.581 29.0605 271.741 29.0605C288.181 29.0605 301.831 33.3406 312.691 41.9106C323.561 50.4806 328.991 61.1006 328.991 73.7706H300.781C300.781 69.3106 297.961 65.6606 292.321 62.8006C286.681 59.9506 279.541 58.5206 270.901 58.5206C263.101 58.5206 256.621 59.7705 251.471 62.2805C246.311 64.7905 243.741 67.9905 243.741 71.8905C243.741 79.5505 255.721 85.1306 279.681 88.6105C295.281 90.9805 307.851 95.6105 317.401 102.501C326.941 109.401 331.711 119.111 331.711 131.651C331.711 145.441 326.071 156.661 314.781 165.291C303.501 173.931 289.501 178.241 272.781 178.241Z" fill="#2B1DAA"/>
<path d="M401.281 178.242C384.841 178.242 371.161 172.912 360.221 162.262C349.281 151.602 343.821 138.342 343.821 122.462C343.821 106.582 349.291 93.3119 360.221 82.6519C371.151 71.9919 384.841 66.6719 401.281 66.6719C415.631 66.6719 427.991 70.8919 438.371 79.3119C448.751 87.7419 455.121 98.6419 457.491 112.012H429.911C427.681 107.412 423.951 103.722 418.731 100.942C413.511 98.1619 407.691 96.7619 401.281 96.7619C392.361 96.7619 384.951 99.2019 379.031 104.072C373.111 108.952 370.151 115.082 370.151 122.462C370.151 129.842 373.111 135.972 379.031 140.852C384.951 145.732 392.371 148.162 401.281 148.162C407.691 148.162 413.501 146.772 418.731 143.982C423.951 141.202 427.681 137.502 429.911 132.912H457.491C455.121 146.282 448.751 157.182 438.371 165.612C427.991 174.032 415.631 178.242 401.281 178.242Z" fill="#2B1DAA"/>
<path d="M500.321 92.362C509.231 75.792 521.631 67.502 537.511 67.502V104.692C525.531 104.692 516.331 106.962 509.931 111.482C503.521 116.012 500.321 122.522 500.321 131.022V175.742H474.831V69.172H500.321V92.362Z" fill="#2B1DAA"/>
<path d="M644.391 162.262C633.451 172.922 619.771 178.242 603.331 178.242C586.891 178.242 573.211 172.912 562.271 162.262C551.331 151.602 545.871 138.342 545.871 122.462C545.871 106.582 551.341 93.3119 562.271 82.6519C573.201 71.9919 586.891 66.6719 603.331 66.6719C619.771 66.6719 633.451 72.0019 644.391 82.6519C655.321 93.3119 660.791 106.572 660.791 122.462C660.791 138.332 655.331 151.602 644.391 162.262ZM581.081 140.842C587.001 145.722 594.421 148.152 603.331 148.152C612.241 148.152 619.661 145.712 625.581 140.842C631.501 135.972 634.461 129.842 634.461 122.452C634.461 115.072 631.501 108.942 625.581 104.062C619.661 99.1919 612.241 96.7519 603.331 96.7519C594.411 96.7519 587.001 99.1919 581.081 104.062C575.161 108.942 572.201 115.072 572.201 122.452C572.201 129.842 575.161 135.972 581.081 140.842Z" fill="#2B1DAA"/>
<path d="M678.761 175.731V25.291H704.251V175.731H678.761Z" fill="#2B1DAA"/>
<path d="M728.701 175.731V25.291H754.191V175.731H728.701Z" fill="#2B1DAA"/>
<path d="M887.291 123.08C887.291 126.15 887.081 128.93 886.661 131.44H798.481C800.431 137.29 804.291 141.96 810.081 145.44C815.861 148.92 822.721 150.66 830.661 150.66C843.051 150.66 852.111 147.81 857.821 142.09H885.821C881.641 152.96 874.541 161.7 864.511 168.31C854.481 174.93 842.991 178.23 830.031 178.23C813.591 178.23 799.871 172.9 788.871 162.25C777.861 151.59 772.361 138.33 772.361 122.45C772.361 106.57 777.831 93.3002 788.761 82.6402C799.691 71.9802 813.381 66.6602 829.821 66.6602C846.261 66.6602 859.941 71.9902 870.881 82.6402C881.821 93.3002 887.291 106.78 887.291 123.08ZM849.791 99.3602C844.011 95.9502 837.361 94.2402 829.841 94.2402C822.321 94.2402 815.741 95.9802 810.091 99.4602C804.451 102.94 800.581 107.54 798.491 113.25H861.381C859.431 107.41 855.561 102.78 849.791 99.3602Z" fill="#2B1DAA"/>
<path d="M977.351 69.1702H1003.05V175.73H977.351V157.13C969.271 171.2 957.501 178.23 942.041 178.23C930.481 178.23 921.111 174.57 913.941 167.26C906.761 159.95 903.181 150.3 903.181 138.32V69.1602H928.671V129.13C928.671 134.84 930.831 139.44 935.151 142.92C939.471 146.4 945.181 148.14 952.281 148.14C959.801 148.14 965.861 146.33 970.461 142.71C975.061 139.09 977.361 134.42 977.361 128.71V69.1702H977.351Z" fill="#2B1DAA"/>
<path d="M1052.78 92.362C1061.69 75.792 1074.09 67.502 1089.97 67.502V104.692C1077.99 104.692 1068.79 106.962 1062.39 111.482C1055.98 116.012 1052.78 122.522 1052.78 131.022V175.742H1027.29V69.172H1052.78V92.362Z" fill="#2B1DAA"/>
<path d="M1149.1 178.24C1135.03 178.24 1123.33 174.51 1114 167.06C1104.67 159.61 1100 150.52 1100 139.79H1125.28C1125.28 143.27 1127.54 146.13 1132.07 148.36C1136.6 150.59 1142.34 151.7 1149.31 151.7C1156.27 151.7 1161.88 150.86 1166.13 149.19C1170.38 147.52 1172.5 145.29 1172.5 142.5C1172.5 139.99 1170.02 137.97 1165.08 136.44C1160.13 134.91 1152.65 133.51 1142.62 132.26C1130.64 130.87 1120.82 127.59 1113.16 122.44C1105.5 117.29 1101.67 109.97 1101.67 100.5C1101.67 89.9204 1106.16 81.6304 1115.15 75.6404C1124.14 69.6504 1135.31 66.6504 1148.69 66.6504C1162.34 66.6504 1173.69 70.2004 1182.75 77.3104C1191.8 84.4104 1196.33 93.1904 1196.33 103.64H1170.63C1170.63 100.58 1168.54 98.0704 1164.36 96.1204C1160.18 94.1704 1154.96 93.2004 1148.69 93.2004C1142.28 93.2004 1137.09 93.9304 1133.12 95.3904C1129.15 96.8504 1127.16 98.9104 1127.16 101.55C1127.16 106.01 1137.12 109.42 1157.04 111.79C1184.34 115.27 1197.99 125.65 1197.99 142.92C1197.99 153.93 1193.32 162.56 1183.99 168.83C1174.66 175.11 1163.03 178.24 1149.1 178.24Z" fill="#2B1DAA"/>
</svg>
