<svg width="57" height="57" viewBox="0 0 57 57" fill="none" xmlns="http://www.w3.org/2000/svg">
<circle cx="28.5368" cy="28.0184" r="28" transform="rotate(0.0376019 28.5368 28.0184)" fill="#E9EBFD"/>
<path d="M36.5391 24.0229L20.5391 24.0124C19.9868 24.012 19.5388 24.4594 19.5384 25.0117L19.5371 27.0117C19.5367 27.564 19.9842 28.012 20.5364 28.0124L36.5364 28.0229C37.0887 28.0232 37.5367 27.5758 37.5371 27.0235L37.5384 25.0235C37.5388 24.4712 37.0913 24.0232 36.5391 24.0229Z" stroke="#7C8493" stroke-width="2" stroke-linecap="round" stroke-linejoin="round"/>
<path d="M28.5391 24.0176L28.5305 37.0176" stroke="#7C8493" stroke-width="2" stroke-linecap="round" stroke-linejoin="round"/>
<path d="M35.5366 28.0229L35.532 35.0229C35.5317 35.5533 35.3206 36.0619 34.9453 36.4367C34.57 36.8115 34.0611 37.0219 33.5307 37.0215L23.5307 37.015C23.0003 37.0146 22.4917 36.8036 22.1169 36.4283C21.7421 36.0529 21.5317 35.5441 21.532 35.0137L21.5366 28.0137" stroke="#7C8493" stroke-width="2" stroke-linecap="round" stroke-linejoin="round"/>
<path d="M24.0392 24.0138C23.3762 24.0134 22.7404 23.7496 22.2719 23.2804C21.8034 22.8113 21.5404 22.1752 21.5408 21.5122C21.5413 20.8491 21.8051 20.2134 22.2742 19.7449C22.7434 19.2763 23.3794 19.0134 24.0425 19.0138C25.0072 18.9976 25.9522 19.4663 26.7543 20.3587C27.5565 21.2512 28.1785 22.5259 28.5392 24.0167C28.9019 22.5264 29.5256 21.2525 30.3289 20.3611C31.1322 19.4697 32.0778 19.0023 33.0425 19.0197C33.7055 19.0201 34.3412 19.2839 34.8098 19.7531C35.2783 20.2222 35.5413 20.8583 35.5408 21.5213C35.5404 22.1844 35.2766 22.8201 34.8074 23.2886C34.3383 23.7572 33.7022 24.0201 33.0392 24.0197" stroke="#7C8493" stroke-width="2" stroke-linecap="round" stroke-linejoin="round"/>
</svg>
